<svg xmlns="http://www.w3.org/2000/svg" viewBox="0 0 900 560"><defs><linearGradient id="g" x1="0" x2="1" y1="0" y2="1"><stop stop-color="#00F5FF"/><stop offset=".55" stop-color="#7B61FF"/><stop offset="1" stop-color="#FF4D8D"/></linearGradient><filter id="b"><feGaussianBlur stdDeviation="28"/></filter></defs><rect width="900" height="560" rx="42" fill="#0A0A0A"/><circle cx="140" cy="110" r="110" fill="#00F5FF" opacity=".35" filter="url(#b)"/><circle cx="760" cy="430" r="150" fill="#FF4D8D" opacity=".28" filter="url(#b)"/><rect x="96" y="88" width="708" height="384" rx="28" fill="rgba(255,255,255,.06)" stroke="rgba(255,255,255,.22)"/><rect x="140" y="134" width="270" height="330" rx="20" fill="#11131c"/><rect x="166" y="170" width="218" height="18" rx="9" fill="#00F5FF" opacity=".8"/><rect x="166" y="218" width="152" height="14" rx="7" fill="#fff" opacity=".35"/><rect x="166" y="256" width="190" height="14" rx="7" fill="#fff" opacity=".22"/><rect x="166" y="294" width="130" height="14" rx="7" fill="#fff" opacity=".3"/><path d="M500 175h210M500 230h150M500 285h240M500 340h185" stroke="url(#g)" stroke-width="18" stroke-linecap="round"/><circle cx="710" cy="175" r="20" fill="#00F5FF"/><circle cx="650" cy="230" r="20" fill="#7B61FF"/><circle cx="740" cy="285" r="20" fill="#FF4D8D"/><text x="500" y="412" fill="white" font-family="Arial" font-size="38" font-weight="700">ATS Intelligence</text></svg>
