<svg xmlns="http://www.w3.org/2000/svg" viewBox="0 0 900 560"><defs><linearGradient id="g" x1="0" x2="1" y1="0" y2="1"><stop stop-color="#7B61FF"/><stop offset="1" stop-color="#00F5FF"/></linearGradient><filter id="b"><feGaussianBlur stdDeviation="24"/></filter></defs><rect width="900" height="560" rx="42" fill="#08090d"/><circle cx="760" cy="140" r="140" fill="#7B61FF" opacity=".32" filter="url(#b)"/><rect x="90" y="80" width="720" height="400" rx="30" fill="rgba(255,255,255,.06)" stroke="rgba(255,255,255,.2)"/><rect x="124" y="122" width="316" height="316" rx="20" fill="#0e1118"/><rect x="470" y="122" width="296" height="316" rx="20" fill="#101622"/><circle cx="160" cy="154" r="7" fill="#FF4D8D"/><circle cx="184" cy="154" r="7" fill="#FFD166"/><circle cx="208" cy="154" r="7" fill="#00F5FF"/><path d="M160 210l50 42-50 42M240 302h100" stroke="url(#g)" stroke-width="18" stroke-linecap="round" stroke-linejoin="round"/><rect x="510" y="172" width="202" height="24" rx="12" fill="#00F5FF" opacity=".9"/><rect x="510" y="224" width="145" height="16" rx="8" fill="#fff" opacity=".36"/><rect x="510" y="264" width="196" height="16" rx="8" fill="#fff" opacity=".24"/><rect x="510" y="304" width="126" height="16" rx="8" fill="#fff" opacity=".3"/><text x="126" y="508" fill="white" font-family="Arial" font-size="36" font-weight="700">Live Code Editor</text></svg>
